<svg width="24" height="24" viewBox="0 0 24 24" fill="none" xmlns="http://www.w3.org/2000/svg">
  <path d="M18.6497 2.85L19.2597 6.71L22.7697 8.5L20.9997 12L22.7797 15.5L19.2397 17.29L18.6297 21.15L14.7397 20.54L11.9697 23.3L9.18973 20.5L5.32973 21.14L4.70973 17.25L1.21973 15.47L2.99973 11.97L1.22973 8.5L4.73973 6.69L5.34973 2.86L9.21973 3.5L11.9997 0.690002L14.7697 3.46L18.6497 2.85ZM9.49973 7C9.1019 7 8.72037 7.15804 8.43907 7.43934C8.15776 7.72065 7.99973 8.10218 7.99973 8.5C7.99973 8.89783 8.15776 9.27936 8.43907 9.56066C8.72037 9.84197 9.1019 10 9.49973 10C9.89755 10 10.2791 9.84197 10.5604 9.56066C10.8417 9.27936 10.9997 8.89783 10.9997 8.5C10.9997 8.10218 10.8417 7.72065 10.5604 7.43934C10.2791 7.15804 9.89755 7 9.49973 7ZM14.4997 14C14.1019 14 13.7204 14.158 13.4391 14.4393C13.1578 14.7206 12.9997 15.1022 12.9997 15.5C12.9997 15.8978 13.1578 16.2794 13.4391 16.5607C13.7204 16.842 14.1019 17 14.4997 17C14.8976 17 15.2791 16.842 15.5604 16.5607C15.8417 16.2794 15.9997 15.8978 15.9997 15.5C15.9997 15.1022 15.8417 14.7206 15.5604 14.4393C15.2791 14.158 14.8976 14 14.4997 14ZM8.40973 17L16.9997 8.41L15.5897 7L6.99973 15.59L8.40973 17Z" fill="black"/>
</svg>
